<svg xmlns="http://www.w3.org/2000/svg" class="font" viewBox="0 0 404.557 60"><g id="2c3507d1-dfc7-41a5-86e0-28045d341d8c" fill="#fff"><path d="M12.88 15.55L12.88 15.55L12.88 15.55Q12.36 15.99 11.96 16.24L11.96 16.24L11.96 16.24Q11.56 16.48 11.27 16.60L11.27 16.60L11.27 16.60Q10.94 16.75 10.70 16.78L10.70 16.78L10.70 16.78Q10.36 16.86 9.94 16.76L9.94 16.76L9.94 16.76Q9.53 16.66 9.07 16.43L9.07 16.43L9.07 16.43Q8.62 16.21 8.15 15.88L8.15 15.88L8.15 15.88Q7.68 15.55 7.22 15.18L7.22 15.18L7.22 15.18Q6.76 14.81 6.33 14.41L6.33 14.41L6.33 14.41Q5.91 14.01 5.55 13.65L5.55 13.65L5.55 13.65Q5.19 13.29 4.91 12.98L4.91 12.98L4.91 12.98Q4.63 12.68 4.48 12.48L4.48 12.48L4.48 12.48Q4.34 12.31 4.26 12.20L4.26 12.20L4.26 12.20Q4.18 12.09 4.18 11.98L4.18 11.98L4.18 11.98Q4.18 11.87 4.28 11.74L4.28 11.74L4.28 11.74Q4.38 11.61 4.61 11.39L4.61 11.39L4.61 11.39Q4.73 11.27 4.93 11.08L4.93 11.08L4.93 11.08Q5.13 10.88 5.37 10.64L5.37 10.64L5.37 10.64Q5.61 10.39 5.88 10.11L5.88 10.11L5.88 10.11Q6.15 9.82 6.42 9.53L6.42 9.53L6.42 9.53Q6.68 9.24 6.92 8.94L6.92 8.94L6.92 8.94Q7.16 8.65 7.35 8.38L7.35 8.38L7.35 8.38Q7.53 8.12 7.64 7.91L7.64 7.91L7.64 7.91Q7.75 7.69 7.75 7.54L7.75 7.54L7.75 7.54Q7.75 7.34 7.32 7.34L7.32 7.34L7.32 7.34Q7.16 7.34 7.01 7.33L7.01 7.33L7.01 7.33Q6.88 7.33 6.74 7.33L6.74 7.33L6.74 7.33Q6.61 7.33 6.54 7.34L6.54 7.34L6.54 7.34Q6.89 7.14 7.20 6.96L7.20 6.96L7.20 6.96Q7.51 6.77 7.81 6.64L7.81 6.64L7.81 6.64Q8.11 6.51 8.41 6.43L8.41 6.43L8.41 6.43Q8.71 6.35 9.04 6.35L9.04 6.35L9.04 6.35Q9.19 6.35 9.35 6.36L9.35 6.36L9.35 6.36Q9.50 6.37 9.67 6.41L9.67 6.41L9.67 6.41Q9.36 6.96 9.03 7.41L9.03 7.41L9.03 7.41Q8.71 7.85 8.38 8.23L8.38 8.23L8.38 8.23Q8.06 8.61 7.74 8.92L7.74 8.92L7.74 8.92Q7.42 9.24 7.12 9.52L7.12 9.52L7.12 9.52Q6.81 9.80 6.52 10.07L6.52 10.07L6.52 10.07Q6.23 10.34 5.97 10.62L5.97 10.62L5.97 10.62Q5.85 10.75 5.87 10.92L5.87 10.92L5.87 10.92Q5.89 11.09 6.12 11.35L6.12 11.35L6.12 11.35Q6.48 11.75 6.92 12.23L6.92 12.23L6.92 12.23Q7.36 12.70 7.86 13.18L7.86 13.18L7.86 13.18Q8.37 13.66 8.92 14.11L8.92 14.11L8.92 14.11Q9.47 14.56 10.04 14.91L10.04 14.91L10.04 14.91Q10.62 15.26 11.21 15.47L11.21 15.47L11.21 15.47Q11.80 15.67 12.39 15.67L12.39 15.67L12.39 15.67Q12.69 15.67 12.88 15.55ZM5.70 15.46L5.70 15.46L5.70 15.46Q5.30 15.74 4.91 15.97L4.91 15.97L4.91 15.97Q4.52 16.20 4.16 16.38L4.16 16.38L4.16 16.38Q3.80 16.55 3.48 16.66L3.48 16.66L3.48 16.66Q3.17 16.77 2.90 16.80L2.90 16.80L2.90 16.80Q2.63 16.82 2.43 16.81L2.43 16.81L2.43 16.81Q2.22 16.80 2.09 16.71L2.09 16.71L2.09 16.71Q1.96 16.63 1.89 16.44L1.89 16.44L1.89 16.44Q1.82 16.25 1.82 15.91L1.82 15.91L1.82 15.91Q1.82 15.74 1.82 15.32L1.82 15.32L1.82 15.32Q1.83 14.90 1.83 14.31L1.83 14.31L1.83 14.31Q1.83 13.73 1.84 13.03L1.84 13.03L1.84 13.03Q1.85 12.34 1.85 11.63L1.85 11.63L1.85 11.63Q1.86 10.92 1.87 10.24L1.87 10.24L1.87 10.24Q1.87 9.56 1.88 9.00L1.88 9.00L1.88 9.00Q1.89 8.45 1.89 8.07L1.89 8.07L1.89 8.07Q1.90 7.69 1.91 7.58L1.91 7.58L1.91 7.58Q1.91 7.46 1.86 7.38L1.86 7.38L1.86 7.38Q1.80 7.29 1.70 7.24L1.70 7.24L1.70 7.24Q1.60 7.19 1.46 7.17L1.46 7.17L1.46 7.17Q1.33 7.15 1.18 7.15L1.18 7.15L1.18 7.15Q0.94 7.15 0.66 7.19L0.66 7.19L0.66 7.19Q0.38 7.24 0.14 7.30L0.14 7.30L0.14 7.30Q0.48 7.08 0.82 6.89L0.82 6.89L0.82 6.89Q1.16 6.69 1.50 6.55L1.50 6.55L1.50 6.55Q1.84 6.41 2.19 6.32L2.19 6.32L2.19 6.32Q2.55 6.24 2.93 6.24L2.93 6.24L2.93 6.24Q3.08 6.24 3.21 6.26L3.21 6.26L3.21 6.26Q3.35 6.28 3.46 6.31L3.46 6.31L3.46 6.31Q3.56 6.35 3.62 6.42L3.62 6.42L3.62 6.42Q3.68 6.48 3.68 6.58L3.68 6.58L3.68 6.58Q3.68 6.84 3.68 7.86L3.68 7.86L3.68 7.86Q3.68 8.30 3.67 8.95L3.67 8.95L3.67 8.95Q3.67 9.60 3.67 10.52L3.67 10.52L3.67 10.52Q3.66 11.44 3.66 12.65L3.66 12.65L3.66 12.65Q3.66 13.86 3.66 15.44L3.66 15.44L3.66 15.44Q4.01 15.50 4.31 15.52L4.31 15.52L4.31 15.52Q4.61 15.55 4.85 15.55L4.85 15.55L4.85 15.55Q5.06 15.55 5.22 15.54L5.22 15.54L5.22 15.54Q5.37 15.52 5.48 15.51L5.48 15.51L5.48 15.51Q5.61 15.49 5.70 15.46ZM20.98 12.56L20.98 12.56L20.98 12.56Q20.98 13.13 20.82 13.60L20.82 13.60L20.82 13.60Q20.67 14.06 20.45 14.41L20.45 14.41L20.45 14.41Q20.23 14.76 20.00 14.99L20.00 14.99L20.00 14.99Q19.78 15.22 19.64 15.33L19.64 15.33L19.64 15.33Q19.24 15.61 18.83 15.89L18.83 15.89L18.83 15.89Q18.41 16.16 17.97 16.38L17.97 16.38L17.97 16.38Q17.53 16.59 17.06 16.72L17.06 16.72L17.06 16.72Q16.60 16.85 16.11 16.85L16.11 16.85L16.11 16.85Q15.37 16.85 14.72 16.67L14.72 16.67L14.72 16.67Q14.07 16.48 13.58 16.11L13.58 16.11L13.58 16.11Q13.09 15.74 12.81 15.18L12.81 15.18L12.81 15.18Q12.52 14.62 12.52 13.87L12.52 13.87L12.52 13.87Q12.52 13.21 12.75 12.62L12.75 12.62L12.75 12.62Q12.98 12.04 13.37 11.55L13.37 11.55L13.37 11.55Q13.75 11.05 14.27 10.66L14.27 10.66L14.27 10.66Q14.79 10.27 15.37 9.99L15.37 9.99L15.37 9.99Q15.96 9.72 16.57 9.58L16.57 9.58L16.57 9.58Q17.19 9.43 17.76 9.43L17.76 9.43L17.76 9.43Q18.47 9.43 19.06 9.67L19.06 9.67L19.06 9.67Q19.65 9.91 20.08 10.33L20.08 10.33L20.08 10.33Q20.51 10.75 20.74 11.32L20.74 11.32L20.74 11.32Q20.98 11.89 20.98 12.56ZM16.26 10.23L16.26 10.23L16.26 10.23Q15.91 10.23 15.63 10.35L15.63 10.35L15.63 10.35Q15.34 10.48 15.12 10.69L15.12 10.69L15.12 10.69Q14.90 10.91 14.73 11.19L14.73 11.19L14.73 11.19Q14.57 11.48 14.47 11.79L14.47 11.79L14.47 11.79Q14.36 12.10 14.31 12.42L14.31 12.42L14.31 12.42Q14.26 12.74 14.26 13.02L14.26 13.02L14.26 13.02Q14.26 13.65 14.49 14.20L14.49 14.20L14.49 14.20Q14.72 14.75 15.13 15.16L15.13 15.16L15.13 15.16Q15.54 15.57 16.08 15.80L16.08 15.80L16.08 15.80Q16.63 16.04 17.24 16.04L17.24 16.04L17.24 16.04Q17.62 16.04 17.98 15.89L17.98 15.89L17.98 15.89Q18.34 15.74 18.62 15.43L18.62 15.43L18.62 15.43Q18.89 15.11 19.06 14.60L19.06 14.60L19.06 14.60Q19.23 14.10 19.23 13.39L19.23 13.39L19.23 13.39Q19.23 12.77 19.00 12.20L19.00 12.20L19.00 12.20Q18.76 11.62 18.36 11.18L18.36 11.18L18.36 11.18Q17.96 10.75 17.42 10.49L17.42 10.49L17.42 10.49Q16.88 10.23 16.26 10.23ZM32.95 15.29L32.95 15.29L32.95 15.29Q32.44 15.66 32.05 15.93L32.05 15.93L32.05 15.93Q31.67 16.21 31.34 16.38L31.34 16.38L31.34 16.38Q31.01 16.56 30.71 16.63L30.71 16.63L30.71 16.63Q30.41 16.70 30.06 16.68L30.06 16.68L30.06 16.68Q29.80 16.67 29.61 16.57L29.61 16.57L29.61 16.57Q29.42 16.47 29.30 16.28L29.30 16.28L29.30 16.28Q29.18 16.09 29.11 15.81L29.11 15.81L29.11 15.81Q29.05 15.54 29.03 15.16L29.03 15.16L29.03 15.16Q28.64 15.49 28.22 15.78L28.22 15.78L28.22 15.78Q27.80 16.06 27.35 16.27L27.35 16.27L27.35 16.27Q26.91 16.48 26.43 16.60L26.43 16.60L26.43 16.60Q25.96 16.71 25.46 16.71L25.46 16.71L25.46 16.71Q24.77 16.71 24.34 16.51L24.34 16.51L24.34 16.51Q23.90 16.30 23.64 15.93L23.64 15.93L23.64 15.93Q23.39 15.57 23.29 15.05L23.29 15.05L23.29 15.05Q23.19 14.54 23.19 13.92L23.19 13.92L23.19 13.92Q23.19 13.52 23.20 13.13L23.20 13.13L23.20 13.13Q23.21 12.74 23.21 12.37L23.21 12.37L23.21 12.37Q23.21 11.94 23.18 11.57L23.18 11.57L23.18 11.57Q23.15 11.19 23.06 10.91L23.06 10.91L23.06 10.91Q22.97 10.64 22.79 10.48L22.79 10.48L22.79 10.48Q22.62 10.32 22.33 10.32L22.33 10.32L22.33 10.32Q22.09 10.32 21.76 10.44L21.76 10.44L21.76 10.44Q22.01 10.24 22.29 10.04L22.29 10.04L22.29 10.04Q22.57 9.83 22.86 9.67L22.86 9.67L22.86 9.67Q23.15 9.50 23.45 9.40L23.45 9.40L23.45 9.40Q23.75 9.29 24.07 9.29L24.07 9.29L24.07 9.29Q24.36 9.29 24.52 9.43L24.52 9.43L24.52 9.43Q24.69 9.56 24.78 9.78L24.78 9.78L24.78 9.78Q24.87 9.99 24.90 10.26L24.90 10.26L24.90 10.26Q24.92 10.52 24.92 10.77L24.92 10.77L24.92 10.77Q24.92 11.45 24.91 12.07L24.91 12.07L24.91 12.07Q24.90 12.68 24.90 13.30L24.90 13.30L24.90 13.30Q24.90 13.83 25.02 14.24L25.02 14.24L25.02 14.24Q25.14 14.66 25.39 14.94L25.39 14.94L25.39 14.94Q25.63 15.23 26.03 15.37L26.03 15.37L26.03 15.37Q26.43 15.52 27.01 15.50L27.01 15.50L27.01 15.50Q27.44 15.50 27.76 15.44L27.76 15.44L27.76 15.44Q28.09 15.37 28.33 15.22L28.33 15.22L28.33 15.22Q28.57 15.06 28.74 14.80L28.74 14.80L28.74 14.80Q28.91 14.53 29.03 14.12L29.03 14.12L29.03 14.12Q29.05 13.21 29.08 12.39L29.08 12.39L29.08 12.39Q29.11 11.57 29.11 10.76L29.11 10.76L29.11 10.76Q29.11 10.60 29.03 10.48L29.03 10.48L29.03 10.48Q28.97 10.38 28.83 10.33L28.83 10.33L28.83 10.33Q28.69 10.27 28.44 10.34L28.44 10.34L28.44 10.34Q28.64 10.19 28.88 10.01L28.88 10.01L28.88 10.01Q29.13 9.82 29.38 9.66L29.38 9.66L29.38 9.66Q29.64 9.50 29.89 9.39L29.89 9.39L29.89 9.39Q30.14 9.28 30.36 9.28L30.36 9.28L30.36 9.28Q30.59 9.28 30.75 9.41L30.75 9.41L30.75 9.41Q30.92 9.55 30.92 9.81L30.92 9.81L30.92 9.81Q30.92 9.95 30.92 10.32L30.92 10.32L30.92 10.32Q30.91 10.68 30.90 11.17L30.90 11.17L30.90 11.17Q30.89 11.66 30.88 12.20L30.88 12.20L30.88 12.20Q30.88 12.75 30.87 13.25L30.87 13.25L30.87 13.25Q30.86 13.75 30.86 14.16L30.86 14.16L30.86 14.16Q30.86 14.57 30.86 14.78L30.86 14.78L30.86 14.78Q30.88 15.17 31.17 15.35L31.17 15.35L31.17 15.35Q31.46 15.54 31.88 15.54L31.88 15.54L31.88 15.54Q32.14 15.54 32.41 15.47L32.41 15.47L32.41 15.47Q32.69 15.41 32.95 15.29ZM39.68 13.79L39.68 13.79L39.68 13.79Q39.68 14.26 39.43 14.67L39.43 14.67L39.43 14.67Q39.18 15.07 38.78 15.42L38.78 15.42L38.78 15.42Q38.38 15.76 37.87 16.02L37.87 16.02L37.87 16.02Q37.36 16.28 36.83 16.45L36.83 16.45L36.83 16.45Q36.31 16.63 35.81 16.71L35.81 16.71L35.81 16.71Q35.32 16.80 34.95 16.77L34.95 16.77L34.95 16.77Q34.63 16.75 34.28 16.67L34.28 16.67L34.28 16.67Q33.93 16.58 33.66 16.46L33.66 16.46L33.66 16.46Q33.39 16.34 33.25 16.19L33.25 16.19L33.25 16.19Q33.12 16.05 33.24 15.91L33.24 15.91L33.24 15.91Q33.37 15.78 33.51 15.65L33.51 15.65L33.51 15.65Q33.65 15.52 33.85 15.38L33.85 15.38L33.85 15.38Q34.05 15.24 34.32 15.09L34.32 15.09L34.32 15.09Q34.60 14.93 34.98 14.74L34.98 14.74L34.98 14.74Q34.86 14.93 34.92 15.07L34.92 15.07L34.92 15.07Q34.98 15.22 35.15 15.33L35.15 15.33L35.15 15.33Q35.31 15.44 35.56 15.52L35.56 15.52L35.56 15.52Q35.80 15.59 36.04 15.64L36.04 15.64L36.04 15.64Q36.27 15.69 36.47 15.71L36.47 15.71L36.47 15.71Q36.66 15.73 36.74 15.73L36.74 15.73L36.74 15.73Q36.99 15.73 37.23 15.71L37.23 15.71L37.23 15.71Q37.47 15.68 37.67 15.60L37.67 15.60L37.67 15.60Q37.86 15.52 37.98 15.36L37.98 15.36L37.98 15.36Q38.10 15.20 38.10 14.92L38.10 14.92L38.10 14.92Q38.10 14.57 37.91 14.33L37.91 14.33L37.91 14.33Q37.72 14.10 37.42 13.94L37.42 13.94L37.42 13.94Q37.11 13.77 36.74 13.68L36.74 13.68L36.74 13.68Q36.36 13.58 35.99 13.52L35.99 13.52L35.99 13.52Q35.62 13.45 35.28 13.41L35.28 13.41L35.28 13.41Q34.95 13.36 34.74 13.31L34.74 13.31L34.74 13.31Q34.40 13.22 34.17 13.07L34.17 13.07L34.17 13.07Q33.94 12.93 33.80 12.75L33.80 12.75L33.80 12.75Q33.66 12.56 33.60 12.36L33.60 12.36L33.60 12.36Q33.54 12.15 33.54 11.95L33.54 11.95L33.54 11.95Q33.54 11.49 33.78 11.10L33.78 11.10L33.78 11.10Q34.03 10.71 34.43 10.40L34.43 10.40L34.43 10.40Q34.82 10.08 35.32 9.84L35.32 9.84L35.32 9.84Q35.83 9.60 36.34 9.44L36.34 9.44L36.34 9.44Q36.86 9.28 37.34 9.19L37.34 9.19L37.34 9.19Q37.83 9.11 38.19 9.11L38.19 9.11L38.19 9.11Q38.60 9.11 38.91 9.16L38.91 9.16L38.91 9.16Q39.23 9.20 39.43 9.26L39.43 9.26L39.43 9.26Q39.62 9.32 39.67 9.42L39.67 9.42L39.67 9.42Q39.72 9.52 39.67 9.64L39.67 9.64L39.67 9.64Q39.62 9.76 39.48 9.91L39.48 9.91L39.48 9.91Q39.33 10.05 39.14 10.20L39.14 10.20L39.14 10.20Q38.98 10.32 38.80 10.43L38.80 10.43L38.80 10.43Q38.64 10.53 38.45 10.63L38.45 10.63L38.45 10.63Q38.26 10.73 38.06 10.80L38.06 10.80L38.06 10.80Q38.16 10.67 38.14 10.57L38.14 10.57L38.14 10.57Q38.12 10.47 38.01 10.38L38.01 10.38L38.01 10.38Q37.91 10.30 37.72 10.24L37.72 10.24L37.72 10.24Q37.54 10.19 37.31 10.15L37.31 10.15L37.31 10.15Q37.08 10.11 36.84 10.09L36.84 10.09L36.84 10.09Q36.59 10.08 36.35 10.08L36.35 10.08L36.35 10.08Q36.11 10.08 35.88 10.09L35.88 10.09L35.88 10.09Q35.65 10.11 35.46 10.18L35.46 10.18L35.46 10.18Q35.28 10.25 35.16 10.40L35.16 10.40L35.16 10.40Q35.05 10.55 35.05 10.81L35.05 10.81L35.05 10.81Q35.05 11.03 35.14 11.26L35.14 11.26L35.14 11.26Q35.24 11.48 35.43 11.69L35.43 11.69L35.43 11.69Q35.62 11.89 35.90 12.04L35.90 12.04L35.90 12.04Q36.18 12.20 36.54 12.27L36.54 12.27L36.54 12.27Q36.83 12.33 37.18 12.35L37.18 12.35L37.18 12.35Q37.53 12.38 37.88 12.42L37.88 12.42L37.88 12.42Q38.23 12.46 38.55 12.54L38.55 12.54L38.55 12.54Q38.88 12.61 39.13 12.76L39.13 12.76L39.13 12.76Q39.38 12.91 39.53 13.16L39.53 13.16L39.53 13.16Q39.68 13.41 39.68 13.79ZM43.17 15.78L43.17 15.78L41.53 16.96L41.53 16.96Q41.56 15.18 41.58 13.77L41.58 13.77L41.58 13.77Q41.61 12.35 41.63 11.25L41.63 11.25L41.63 11.25Q41.64 10.14 41.66 9.33L41.66 9.33L41.66 9.33Q41.67 8.52 41.68 7.94L41.68 7.94L41.68 7.94Q41.70 6.58 41.70 6.03L41.70 6.03L41.70 6.03Q41.72 5.20 41.46 4.73L41.46 4.73L41.46 4.73Q41.21 4.27 40.67 4.27L40.67 4.27L40.67 4.27Q40.50 4.27 40.32 4.31L40.32 4.31L40.32 4.31Q40.13 4.35 39.92 4.46L39.92 4.46L39.92 4.46Q40.19 4.27 40.48 4.07L40.48 4.07L40.48 4.07Q40.78 3.87 41.08 3.71L41.08 3.71L41.08 3.71Q41.38 3.54 41.70 3.44L41.70 3.44L41.70 3.44Q42.01 3.33 42.31 3.33L42.31 3.33L42.31 3.33Q42.59 3.33 42.78 3.43L42.78 3.43L42.78 3.43Q42.97 3.53 43.10 3.70L43.10 3.70L43.10 3.70Q43.22 3.87 43.29 4.08L43.29 4.08L43.29 4.08Q43.36 4.30 43.39 4.53L43.39 4.53L43.39 4.53Q43.42 4.76 43.43 5.00L43.43 5.00L43.43 5.00Q43.44 5.23 43.44 5.43L43.44 5.43L43.44 5.43Q43.44 5.53 43.43 5.80L43.43 5.80L43.43 5.80Q43.43 6.07 43.42 6.47L43.42 6.47L43.42 6.47Q43.42 6.88 43.40 7.40L43.40 7.40L43.40 7.40Q43.39 7.92 43.38 8.51L43.38 8.51L43.38 8.51Q43.37 9.11 43.35 9.76L43.35 9.76L43.35 9.76Q43.34 10.41 43.32 11.08L43.32 11.08L43.32 11.08Q43.65 10.69 44.10 10.35L44.10 10.35L44.10 10.35Q44.54 10.01 45.03 9.77L45.03 9.77L45.03 9.77Q45.51 9.53 46.01 9.41L46.01 9.41L46.01 9.41Q46.50 9.29 46.95 9.34L46.95 9.34L46.95 9.34Q47.25 9.39 47.58 9.52L47.58 9.52L47.58 9.52Q47.91 9.65 48.19 9.91L48.19 9.91L48.19 9.91Q48.47 10.18 48.64 10.61L48.64 10.61L48.64 10.61Q48.81 11.05 48.79 11.70L48.79 11.70L48.79 11.70Q48.77 12.46 48.73 13.10L48.73 13.10L48.73 13.10Q48.69 13.74 48.69 14.23L48.69 14.23L48.69 14.23Q48.69 14.53 48.73 14.79L48.73 14.79L48.73 14.79Q48.78 15.05 48.90 15.25L48.90 15.25L48.90 15.25Q49.01 15.44 49.22 15.56L49.22 15.56L49.22 15.56Q49.42 15.67 49.73 15.67L49.73 15.67L49.73 15.67Q50.01 15.67 50.31 15.57L50.31 15.57L50.31 15.57Q50.61 15.46 50.92 15.24L50.92 15.24L50.92 15.24Q50.42 15.69 50.01 15.99L50.01 15.99L50.01 15.99Q49.59 16.29 49.24 16.47L49.24 16.47L49.24 16.47Q48.89 16.66 48.58 16.74L48.58 16.74L48.58 16.74Q48.27 16.82 47.98 16.81L47.98 16.81L47.98 16.81Q47.69 16.80 47.49 16.70L47.49 16.70L47.49 16.70Q47.29 16.59 47.17 16.37L47.17 16.37L47.17 16.37Q47.04 16.15 47.00 15.79L47.00 15.79L47.00 15.79Q46.95 15.44 46.96 14.93L46.96 14.93L46.96 14.93Q46.98 14.48 47.01 13.94L47.01 13.94L47.01 13.94Q47.04 13.39 47.04 12.86L47.04 12.86L47.04 12.86Q47.04 12.25 46.97 11.81L46.97 11.81L46.97 11.81Q46.89 11.38 46.67 11.09L46.67 11.09L46.67 11.09Q46.46 10.81 46.08 10.67L46.08 10.67L46.08 10.67Q45.70 10.53 45.10 10.53L45.10 10.53L45.10 10.53Q44.79 10.53 44.53 10.59L44.53 10.59L44.53 10.59Q44.27 10.64 44.12 10.75L44.12 10.75L44.12 10.75Q44.00 10.83 43.85 11.15L43.85 11.15L43.85 11.15Q43.71 11.47 43.57 12.08L43.57 12.08L43.57 12.08Q43.44 12.68 43.33 13.59L43.33 13.59L43.33 13.59Q43.22 14.51 43.17 15.78ZM54.03 3.77L54.03 3.77L54.03 3.77Q54.03 3.97 54.04 4.15L54.04 4.15L54.04 4.15Q54.04 4.33 54.04 4.50L54.04 4.50L54.04 4.50Q54.04 4.91 53.98 5.20L53.98 5.20L53.98 5.20Q53.91 5.48 53.66 5.65L53.66 5.65L53.66 5.65Q53.50 5.76 53.28 5.91L53.28 5.91L53.28 5.91Q52.90 6.15 52.07 6.66L52.07 6.66L52.07 6.66Q52.15 6.44 52.19 6.13L52.19 6.13L52.19 6.13Q52.23 5.82 52.24 5.54L52.24 5.54L52.24 5.54Q52.25 5.21 52.24 4.85L52.24 4.85L52.24 4.85Q52.67 4.63 53.00 4.43L53.00 4.43L53.00 4.43Q53.33 4.24 53.56 4.09L53.56 4.09L53.56 4.09Q53.83 3.92 54.03 3.77ZM56.44 15.42L56.44 15.42L56.44 15.42Q55.66 15.93 55.11 16.23L55.11 16.23L55.11 16.23Q54.57 16.52 54.18 16.67L54.18 16.67L54.18 16.67Q53.79 16.81 53.53 16.83L53.53 16.83L53.53 16.83Q53.26 16.85 53.04 16.81L53.04 16.81L53.04 16.81Q52.84 16.78 52.65 16.71L52.65 16.71L52.65 16.71Q52.46 16.64 52.31 16.46L52.31 16.46L52.31 16.46Q52.15 16.28 52.06 15.93L52.06 15.93L52.06 15.93Q51.96 15.59 51.96 15.00L51.96 15.00L51.96 15.00Q51.96 14.51 51.99 14.03L51.99 14.03L51.99 14.03Q52.01 13.55 52.05 13.07L52.05 13.07L52.05 13.07Q52.08 12.60 52.09 12.13L52.09 12.13L52.09 12.13Q52.11 11.66 52.10 11.20L52.10 11.20L52.10 11.20Q52.08 10.75 51.93 10.54L51.93 10.54L51.93 10.54Q51.78 10.33 51.48 10.33L51.48 10.33L51.48 10.33Q51.37 10.33 51.23 10.36L51.23 10.36L51.23 10.36Q51.09 10.38 50.93 10.44L50.93 10.44L50.93 10.44Q51.18 10.27 51.44 10.09L51.44 10.09L51.44 10.09Q51.70 9.92 51.97 9.78L51.97 9.78L51.97 9.78Q52.23 9.65 52.50 9.56L52.50 9.56L52.50 9.56Q52.77 9.47 53.04 9.47L53.04 9.47L53.04 9.47Q53.33 9.47 53.54 9.60L53.54 9.60L53.54 9.60Q53.76 9.73 53.82 10.04L53.82 10.04L53.82 10.04Q53.84 10.15 53.85 10.38L53.85 10.38L53.85 10.38Q53.86 10.60 53.86 10.90L53.86 10.90L53.86 10.90Q53.86 11.35 53.84 11.89L53.84 11.89L53.84 11.89Q53.83 12.43 53.81 12.95L53.81 12.95L53.81 12.95Q53.79 13.47 53.76 13.91L53.76 13.91L53.76 13.91Q53.74 14.36 53.74 14.59L53.74 14.59L53.74 14.59Q53.73 14.82 53.82 15.05L53.82 15.05L53.82 15.05Q53.91 15.27 54.08 15.45L54.08 15.45L54.08 15.45Q54.26 15.63 54.51 15.75L54.51 15.75L54.51 15.75Q54.77 15.86 55.10 15.86L55.10 15.86L55.10 15.86Q55.38 15.86 55.72 15.76L55.72 15.76L55.72 15.76Q56.05 15.65 56.44 15.42ZM58.53 15.78L58.53 15.78L56.89 16.96L56.89 16.96Q56.92 15.18 56.94 13.77L56.94 13.77L56.94 13.77Q56.97 12.35 56.99 11.25L56.99 11.25L56.99 11.25Q57.00 10.14 57.02 9.33L57.02 9.33L57.02 9.33Q57.03 8.52 57.04 7.94L57.04 7.94L57.04 7.94Q57.06 6.58 57.06 6.03L57.06 6.03L57.06 6.03Q57.08 5.20 56.82 4.73L56.82 4.73L56.82 4.73Q56.57 4.27 56.03 4.27L56.03 4.27L56.03 4.27Q55.86 4.27 55.68 4.31L55.68 4.31L55.68 4.31Q55.49 4.35 55.28 4.46L55.28 4.46L55.28 4.46Q55.55 4.27 55.84 4.07L55.84 4.07L55.84 4.07Q56.14 3.87 56.44 3.71L56.44 3.71L56.44 3.71Q56.75 3.54 57.06 3.44L57.06 3.44L57.06 3.44Q57.37 3.33 57.67 3.33L57.67 3.33L57.67 3.33Q57.95 3.33 58.14 3.43L58.14 3.43L58.14 3.43Q58.33 3.53 58.46 3.70L58.46 3.70L58.46 3.70Q58.58 3.87 58.65 4.08L58.65 4.08L58.65 4.08Q58.72 4.30 58.75 4.53L58.75 4.53L58.75 4.53Q58.78 4.76 58.79 5.00L58.79 5.00L58.79 5.00Q58.80 5.23 58.80 5.43L58.80 5.43L58.64 11.28L58.64 11.28Q59.01 10.86 59.48 10.50L59.48 10.50L59.48 10.50Q59.94 10.14 60.45 9.89L60.45 9.89L60.45 9.89Q60.96 9.64 61.47 9.52L61.47 9.52L61.47 9.52Q61.97 9.39 62.42 9.45L62.42 9.45L62.42 9.45Q62.69 9.48 62.92 9.60L62.92 9.60L62.92 9.60Q63.15 9.72 63.32 9.92L63.32 9.92L63.32 9.92Q63.49 10.11 63.59 10.37L63.59 10.37L63.59 10.37Q63.69 10.62 63.69 10.92L63.69 10.92L63.69 10.92Q63.69 11.40 63.46 11.79L63.46 11.79L63.46 11.79Q63.24 12.17 62.89 12.46L62.89 12.46L62.89 12.46Q62.54 12.74 62.11 12.93L62.11 12.93L62.11 12.93Q61.68 13.12 61.28 13.21L61.28 13.21L61.28 13.21Q61.47 13.41 61.72 13.68L61.72 13.68L61.72 13.68Q61.97 13.95 62.25 14.23L62.25 14.23L62.25 14.23Q62.54 14.51 62.86 14.79L62.86 14.79L62.86 14.79Q63.17 15.07 63.49 15.29L63.49 15.29L63.49 15.29Q63.81 15.50 64.11 15.64L64.11 15.64L64.11 15.64Q64.42 15.77 64.70 15.77L64.70 15.77L64.70 15.77Q65.25 15.77 65.81 15.42L65.81 15.42L65.81 15.42Q65.32 15.77 64.94 16.05L64.94 16.05L64.94 16.05Q64.57 16.32 64.25 16.51L64.25 16.51L64.25 16.51Q63.92 16.69 63.60 16.78L63.60 16.78L63.60 16.78Q63.28 16.87 62.88 16.84L62.88 16.84L62.88 16.84Q62.48 16.81 62.10 16.57L62.10 16.57L62.10 16.57Q61.72 16.34 61.37 16.02L61.37 16.02L61.37 16.02Q61.02 15.70 60.70 15.33L60.70 15.33L60.70 15.33Q60.38 14.97 60.09 14.68L60.09 14.68L60.09 14.68Q59.97 14.54 59.82 14.42L59.82 14.42L59.82 14.42Q59.69 14.31 59.51 14.21L59.51 14.21L59.51 14.21Q59.33 14.11 59.10 14.07L59.10 14.07L59.10 14.07Q59.34 13.87 59.59 13.72L59.59 13.72L59.59 13.72Q59.83 13.56 60.03 13.45L60.03 13.45L60.03 13.45Q60.26 13.32 60.48 13.21L60.48 13.21L60.48 13.21Q60.72 13.11 60.97 12.97L60.97 12.97L60.97 12.97Q61.23 12.84 61.44 12.66L61.44 12.66L61.44 12.66Q61.66 12.48 61.80 12.24L61.80 12.24L61.80 12.24Q61.94 12.00 61.94 11.70L61.94 11.70L61.94 11.70Q61.94 11.44 61.85 11.20L61.85 11.20L61.85 11.20Q61.77 10.96 61.61 10.77L61.61 10.77L61.61 10.77Q61.46 10.58 61.24 10.47L61.24 10.47L61.24 10.47Q61.02 10.36 60.76 10.36L60.76 10.36L60.76 10.36Q60.50 10.36 60.27 10.44L60.27 10.44L60.27 10.44Q60.03 10.52 59.87 10.61L59.87 10.61L59.87 10.61Q59.73 10.68 59.52 11.04L59.52 11.04L59.52 11.04Q59.30 11.40 59.09 12.04L59.09 12.04L59.09 12.04Q58.88 12.68 58.72 13.62L58.72 13.62L58.72 13.62Q58.56 14.55 58.53 15.78ZM65.88 15.37L65.81 15.42L65.88 15.37ZM69.91 21.43L69.91 21.43L69.91 21.43Q69.36 21.85 68.91 22.12L68.91 22.12L68.91 22.12Q68.47 22.39 68.12 22.56L68.12 22.56L68.12 22.56Q67.76 22.72 67.49 22.78L67.49 22.78L67.49 22.78Q67.22 22.85 67.01 22.86L67.01 22.86L67.01 22.86Q66.80 22.87 66.67 22.78L66.67 22.78L66.67 22.78Q66.53 22.68 66.46 22.51L66.46 22.51L66.46 22.51Q66.38 22.33 66.36 22.09L66.36 22.09L66.36 22.09Q66.33 21.84 66.34 21.54L66.34 21.54L66.34 21.54Q66.35 21.42 66.35 21.09L66.35 21.09L66.35 21.09Q66.36 20.76 66.36 20.27L66.36 20.27L66.36 20.27Q66.37 19.78 66.37 19.17L66.37 19.17L66.37 19.17Q66.38 18.57 66.38 17.89L66.38 17.89L66.38 17.89Q66.39 17.22 66.40 16.52L66.40 16.52L66.40 16.52Q66.40 15.81 66.41 15.13L66.41 15.13L66.41 15.13Q66.42 14.45 66.42 13.83L66.42 13.83L66.42 13.83Q66.42 13.21 66.43 12.71L66.43 12.71L66.43 12.71Q66.44 12.21 66.44 11.86L66.44 11.86L66.44 11.86Q66.45 11.50 66.45 11.36L66.45 11.36L66.45 11.36Q66.47 10.85 66.32 10.60L66.32 10.60L66.32 10.60Q66.17 10.34 65.82 10.34L65.82 10.34L65.82 10.34Q65.69 10.34 65.54 10.38L65.54 10.38L65.54 10.38Q65.39 10.42 65.21 10.48L65.21 10.48L65.21 10.48Q65.45 10.29 65.73 10.09L65.73 10.09L65.73 10.09Q66.00 9.88 66.29 9.70L66.29 9.70L66.29 9.70Q66.58 9.52 66.88 9.41L66.88 9.41L66.88 9.41Q67.18 9.29 67.49 9.29L67.49 9.29L67.49 9.29Q67.65 9.29 67.79 9.34L67.79 9.34L67.79 9.34Q67.94 9.40 68.04 9.54L68.04 9.54L68.04 9.54Q68.15 9.67 68.22 9.90L68.22 9.90L68.22 9.90Q68.28 10.13 68.28 10.48L68.28 10.48L68.28 10.94L68.28 10.94Q69.08 10.20 70.02 9.79L70.02 9.79L70.02 9.79Q70.97 9.37 72.05 9.37L72.05 9.37L72.05 9.37Q72.63 9.37 73.08 9.61L73.08 9.61L73.08 9.61Q73.54 9.85 73.87 10.24L73.87 10.24L73.87 10.24Q74.19 10.64 74.36 11.14L74.36 11.14L74.36 11.14Q74.53 11.64 74.53 12.16L74.53 12.16L74.53 12.16Q74.53 12.90 74.25 13.49L74.25 13.49L74.25 13.49Q73.96 14.08 73.51 14.55L73.51 14.55L73.51 14.55Q73.05 15.03 72.47 15.39L72.47 15.39L72.47 15.39Q71.90 15.75 71.33 16.04L71.33 16.04L71.33 16.04Q71.03 16.19 70.66 16.32L70.66 16.32L70.66 16.32Q70.28 16.45 69.86 16.55L69.86 16.55L69.86 16.55Q69.45 16.65 69.02 16.71L69.02 16.71L69.02 16.71Q68.58 16.78 68.19 16.81L68.19 16.81L68.19 16.81Q68.17 17.87 68.16 18.90L68.16 18.90L68.16 18.90Q68.15 19.93 68.15 20.99L68.15 20.99L68.15 20.99Q68.16 21.34 68.33 21.54L68.33 21.54L68.33 21.54Q68.50 21.74 68.84 21.74L68.84 21.74L68.84 21.74Q69.26 21.74 69.91 21.43ZM70.21 15.72L70.21 15.72L70.21 15.72Q70.68 15.72 71.05 15.64L71.05 15.64L71.05 15.64Q71.41 15.56 71.65 15.46L71.65 15.46L71.65 15.46Q71.94 15.35 72.15 15.21L72.15 15.21L72.15 15.21Q72.28 15.10 72.38 14.90L72.38 14.90L72.38 14.90Q72.49 14.69 72.57 14.42L72.57 14.42L72.57 14.42Q72.65 14.16 72.69 13.84L72.69 13.84L72.69 13.84Q72.74 13.52 72.74 13.18L72.74 13.18L72.74 13.18Q72.74 12.61 72.56 12.10L72.56 12.10L72.56 12.10Q72.39 11.59 72.05 11.20L72.05 11.20L72.05 11.20Q71.72 10.82 71.25 10.60L71.25 10.60L71.25 10.60Q70.78 10.37 70.19 10.37L70.19 10.37L70.19 10.37Q69.70 10.37 69.34 10.66L69.34 10.66L69.34 10.66Q68.97 10.96 68.74 11.57L68.74 11.57L68.74 11.57Q68.50 12.17 68.37 13.12L68.37 13.12L68.37 13.12Q68.24 14.07 68.22 15.37L68.22 15.37L68.22 15.37Q68.80 15.57 69.29 15.64L69.29 15.64L69.29 15.64Q69.78 15.72 70.21 15.72ZM86.50 15.29L86.50 15.29L86.50 15.29Q85.99 15.66 85.61 15.93L85.61 15.93L85.61 15.93Q85.22 16.21 84.90 16.38L84.90 16.38L84.90 16.38Q84.57 16.56 84.27 16.63L84.27 16.63L84.27 16.63Q83.97 16.70 83.62 16.68L83.62 16.68L83.62 16.68Q83.35 16.67 83.16 16.57L83.16 16.57L83.16 16.57Q82.97 16.47 82.85 16.28L82.85 16.28L82.85 16.28Q82.73 16.09 82.66 15.81L82.66 15.81L82.66 15.81Q82.60 15.54 82.58 15.16L82.58 15.16L82.58 15.16Q82.19 15.49 81.77 15.78L81.77 15.78L81.77 15.78Q81.35 16.06 80.91 16.27L80.91 16.27L80.91 16.27Q80.46 16.48 79.98 16.60L79.98 16.60L79.98 16.60Q79.51 16.71 79.01 16.71L79.01 16.71L79.01 16.71Q78.33 16.71 77.89 16.51L77.89 16.51L77.89 16.51Q77.45 16.30 77.19 15.93L77.19 15.93L77.19 15.93Q76.94 15.57 76.84 15.05L76.84 15.05L76.84 15.05Q76.74 14.54 76.74 13.92L76.74 13.92L76.74 13.92Q76.74 13.52 76.75 13.13L76.75 13.13L76.75 13.13Q76.77 12.74 76.77 12.37L76.77 12.37L76.77 12.37Q76.77 11.94 76.74 11.57L76.74 11.57L76.74 11.57Q76.71 11.19 76.61 10.91L76.61 10.91L76.61 10.91Q76.52 10.64 76.35 10.48L76.35 10.48L76.35 10.48Q76.17 10.32 75.89 10.32L75.89 10.32L75.89 10.32Q75.65 10.32 75.31 10.44L75.31 10.44L75.31 10.44Q75.56 10.24 75.84 10.04L75.84 10.04L75.84 10.04Q76.12 9.83 76.41 9.67L76.41 9.67L76.41 9.67Q76.70 9.50 77.00 9.40L77.00 9.40L77.00 9.40Q77.31 9.29 77.62 9.29L77.62 9.29L77.62 9.29Q77.91 9.29 78.08 9.43L78.08 9.43L78.08 9.43Q78.24 9.56 78.33 9.78L78.33 9.78L78.33 9.78Q78.42 9.99 78.45 10.26L78.45 10.26L78.45 10.26Q78.48 10.52 78.48 10.77L78.48 10.77L78.48 10.77Q78.48 11.45 78.46 12.07L78.46 12.07L78.46 12.07Q78.45 12.68 78.45 13.30L78.45 13.30L78.45 13.30Q78.46 13.83 78.57 14.24L78.57 14.24L78.57 14.24Q78.69 14.66 78.94 14.94L78.94 14.94L78.94 14.94Q79.19 15.23 79.59 15.37L79.59 15.37L79.59 15.37Q79.99 15.52 80.56 15.50L80.56 15.50L80.56 15.50Q80.99 15.50 81.32 15.44L81.32 15.44L81.32 15.44Q81.64 15.37 81.88 15.22L81.88 15.22L81.88 15.22Q82.13 15.06 82.29 14.80L82.29 14.80L82.29 14.80Q82.46 14.53 82.58 14.12L82.58 14.12L82.58 14.12Q82.60 13.21 82.63 12.39L82.63 12.39L82.63 12.39Q82.67 11.57 82.67 10.76L82.67 10.76L82.67 10.76Q82.66 10.60 82.58 10.48L82.58 10.48L82.58 10.48Q82.52 10.38 82.38 10.33L82.38 10.33L82.38 10.33Q82.24 10.27 81.99 10.34L81.99 10.34L81.99 10.34Q82.19 10.19 82.43 10.01L82.43 10.01L82.43 10.01Q82.68 9.82 82.94 9.66L82.94 9.66L82.94 9.66Q83.19 9.50 83.44 9.39L83.44 9.39L83.44 9.39Q83.69 9.28 83.91 9.28L83.91 9.28L83.91 9.28Q84.14 9.28 84.31 9.41L84.31 9.41L84.31 9.41Q84.47 9.55 84.47 9.81L84.47 9.81L84.47 9.81Q84.47 9.95 84.47 10.32L84.47 10.32L84.47 10.32Q84.46 10.68 84.45 11.17L84.45 11.17L84.45 11.17Q84.44 11.66 84.44 12.20L84.44 12.20L84.44 12.20Q84.43 12.75 84.42 13.25L84.42 13.25L84.42 13.25Q84.42 13.75 84.42 14.16L84.42 14.16L84.42 14.16Q84.42 14.57 84.42 14.78L84.42 14.78L84.42 14.78Q84.43 15.17 84.72 15.35L84.72 15.35L84.72 15.35Q85.01 15.54 85.44 15.54L85.44 15.54L85.44 15.54Q85.69 15.54 85.97 15.47L85.97 15.47L85.97 15.47Q86.24 15.41 86.50 15.29ZM91.26 21.43L91.26 21.43L91.26 21.43Q90.71 21.85 90.26 22.12L90.26 22.12L90.26 22.12Q89.82 22.39 89.47 22.56L89.47 22.56L89.47 22.56Q89.11 22.72 88.84 22.78L88.84 22.78L88.84 22.78Q88.57 22.85 88.36 22.86L88.36 22.86L88.36 22.86Q88.15 22.87 88.02 22.78L88.02 22.78L88.02 22.78Q87.88 22.68 87.81 22.51L87.81 22.51L87.81 22.51Q87.73 22.33 87.71 22.09L87.71 22.09L87.71 22.09Q87.68 21.84 87.69 21.54L87.69 21.54L87.69 21.54Q87.70 21.42 87.70 21.09L87.70 21.09L87.70 21.09Q87.71 20.76 87.71 20.27L87.71 20.27L87.71 20.27Q87.72 19.78 87.72 19.17L87.72 19.17L87.72 19.17Q87.73 18.57 87.73 17.89L87.73 17.89L87.73 17.89Q87.74 17.22 87.75 16.52L87.75 16.52L87.75 16.52Q87.75 15.81 87.76 15.13L87.76 15.13L87.76 15.13Q87.77 14.45 87.77 13.83L87.77 13.83L87.77 13.83Q87.77 13.21 87.78 12.71L87.78 12.71L87.78 12.71Q87.79 12.21 87.79 11.86L87.79 11.86L87.79 11.86Q87.79 11.50 87.80 11.36L87.80 11.36L87.80 11.36Q87.82 10.85 87.67 10.60L87.67 10.60L87.67 10.60Q87.52 10.34 87.17 10.34L87.17 10.34L87.17 10.34Q87.04 10.34 86.89 10.38L86.89 10.38L86.89 10.38Q86.73 10.42 86.56 10.48L86.56 10.48L86.56 10.48Q86.80 10.29 87.08 10.09L87.08 10.09L87.08 10.09Q87.35 9.88 87.64 9.70L87.64 9.70L87.64 9.70Q87.93 9.52 88.23 9.41L88.23 9.41L88.23 9.41Q88.53 9.29 88.84 9.29L88.84 9.29L88.84 9.29Q89.00 9.29 89.14 9.34L89.14 9.34L89.14 9.34Q89.28 9.40 89.39 9.54L89.39 9.54L89.39 9.54Q89.50 9.67 89.57 9.90L89.57 9.90L89.57 9.90Q89.63 10.13 89.63 10.48L89.63 10.48L89.63 10.94L89.63 10.94Q90.43 10.20 91.37 9.79L91.37 9.79L91.37 9.79Q92.32 9.37 93.40 9.37L93.40 9.37L93.40 9.37Q93.97 9.37 94.43 9.61L94.43 9.61L94.43 9.61Q94.89 9.85 95.21 10.24L95.21 10.24L95.21 10.24Q95.54 10.64 95.71 11.14L95.71 11.14L95.71 11.14Q95.88 11.64 95.88 12.16L95.88 12.16L95.88 12.16Q95.88 12.90 95.60 13.49L95.60 13.49L95.60 13.49Q95.31 14.08 94.86 14.55L94.86 14.55L94.86 14.55Q94.40 15.03 93.82 15.39L93.82 15.39L93.82 15.39Q93.25 15.75 92.67 16.04L92.67 16.04L92.67 16.04Q92.38 16.19 92.00 16.32L92.00 16.32L92.00 16.32Q91.63 16.45 91.21 16.55L91.21 16.55L91.21 16.55Q90.79 16.65 90.36 16.71L90.36 16.71L90.36 16.71Q89.93 16.78 89.54 16.81L89.54 16.81L89.54 16.81Q89.52 17.87 89.51 18.90L89.51 18.90L89.51 18.90Q89.50 19.93 89.50 20.99L89.50 20.99L89.50 20.99Q89.51 21.34 89.68 21.54L89.68 21.54L89.68 21.54Q89.84 21.74 90.19 21.74L90.19 21.74L90.19 21.74Q90.61 21.74 91.26 21.43ZM91.55 15.72L91.55 15.72L91.55 15.72Q92.03 15.72 92.39 15.64L92.39 15.64L92.39 15.64Q92.76 15.56 93.00 15.46L93.00 15.46L93.00 15.46Q93.29 15.35 93.50 15.21L93.50 15.21L93.50 15.21Q93.63 15.10 93.73 14.90L93.73 14.90L93.73 14.90Q93.84 14.69 93.92 14.42L93.92 14.42L93.92 14.42Q93.99 14.16 94.04 13.84L94.04 13.84L94.04 13.84Q94.09 13.52 94.09 13.18L94.09 13.18L94.09 13.18Q94.09 12.61 93.91 12.10L93.91 12.10L93.91 12.10Q93.73 11.59 93.40 11.20L93.40 11.20L93.40 11.20Q93.07 10.82 92.60 10.60L92.60 10.60L92.60 10.60Q92.13 10.37 91.54 10.37L91.54 10.37L91.54 10.37Q91.05 10.37 90.69 10.66L90.69 10.66L90.69 10.66Q90.32 10.96 90.08 11.57L90.08 11.57L90.08 11.57Q89.84 12.17 89.72 13.12L89.72 13.12L89.72 13.12Q89.59 14.07 89.56 15.37L89.56 15.37L89.56 15.37Q90.15 15.57 90.64 15.64L90.64 15.64L90.64 15.64Q91.13 15.72 91.55 15.72ZM101.49 21.43L101.49 21.43L101.49 21.43Q100.94 21.85 100.50 22.12L100.50 22.12L100.50 22.12Q100.05 22.39 99.70 22.56L99.70 22.56L99.70 22.56Q99.35 22.72 99.07 22.78L99.07 22.78L99.07 22.78Q98.80 22.85 98.59 22.86L98.59 22.86L98.59 22.86Q98.38 22.87 98.25 22.78L98.25 22.78L98.25 22.78Q98.12 22.68 98.04 22.51L98.04 22.51L98.04 22.51Q97.97 22.33 97.94 22.09L97.94 22.09L97.94 22.09Q97.91 21.84 97.92 21.54L97.92 21.54L97.92 21.54Q97.93 21.42 97.94 21.09L97.94 21.09L97.94 21.09Q97.94 20.76 97.95 20.27L97.95 20.27L97.95 20.27Q97.95 19.78 97.96 19.17L97.96 19.17L97.96 19.17Q97.96 18.57 97.97 17.89L97.97 17.89L97.97 17.89Q97.97 17.22 97.98 16.52L97.98 16.52L97.98 16.52Q97.99 15.81 97.99 15.13L97.99 15.13L97.99 15.13Q98 14.45 98.00 13.83L98.00 13.83L98.00 13.83Q98.01 13.21 98.01 12.71L98.01 12.71L98.01 12.71Q98.02 12.21 98.02 11.86L98.02 11.86L98.02 11.86Q98.03 11.50 98.03 11.36L98.03 11.36L98.03 11.36Q98.05 10.85 97.90 10.60L97.90 10.60L97.90 10.60Q97.75 10.34 97.41 10.34L97.41 10.34L97.41 10.34Q97.28 10.34 97.12 10.38L97.12 10.38L97.12 10.38Q96.97 10.42 96.79 10.48L96.79 10.48L96.79 10.48Q97.04 10.29 97.31 10.09L97.31 10.09L97.31 10.09Q97.58 9.88 97.87 9.70L97.87 9.70L97.87 9.70Q98.16 9.52 98.46 9.41L98.46 9.41L98.46 9.41Q98.77 9.29 99.07 9.29L99.07 9.29L99.07 9.29Q99.23 9.29 99.37 9.34L99.37 9.34L99.37 9.34Q99.52 9.40 99.63 9.54L99.63 9.54L99.63 9.54Q99.74 9.67 99.80 9.90L99.80 9.90L99.80 9.90Q99.87 10.13 99.87 10.48L99.87 10.48L99.87 10.94L99.87 10.94Q100.66 10.20 101.61 9.79L101.61 9.79L101.61 9.79Q102.55 9.37 103.63 9.37L103.63 9.37L103.63 9.37Q104.21 9.37 104.67 9.61L104.67 9.61L104.67 9.61Q105.12 9.85 105.45 10.24L105.45 10.24L105.45 10.24Q105.77 10.64 105.94 11.14L105.94 11.14L105.94 11.14Q106.11 11.64 106.11 12.16L106.11 12.16L106.11 12.16Q106.11 12.90 105.83 13.49L105.83 13.49L105.83 13.49Q105.55 14.08 105.09 14.55L105.09 14.55L105.09 14.55Q104.63 15.03 104.06 15.39L104.06 15.39L104.06 15.39Q103.48 15.75 102.91 16.04L102.91 16.04L102.91 16.04Q102.61 16.19 102.24 16.32L102.24 16.32L102.24 16.32Q101.86 16.45 101.45 16.55L101.45 16.55L101.45 16.55Q101.03 16.65 100.60 16.71L100.60 16.71L100.60 16.71Q100.17 16.78 99.77 16.81L99.77 16.81L99.77 16.81Q99.75 17.87 99.74 18.90L99.74 18.90L99.74 18.90Q99.73 19.93 99.73 20.99L99.73 20.99L99.73 20.99Q99.74 21.34 99.91 21.54L99.91 21.54L99.91 21.54Q100.08 21.74 100.43 21.74L100.43 21.74L100.43 21.74Q100.84 21.74 101.49 21.43ZM101.79 15.72L101.79 15.72L101.79 15.72Q102.27 15.72 102.63 15.64L102.63 15.64L102.63 15.64Q102.99 15.56 103.24 15.46L103.24 15.46L103.24 15.46Q103.52 15.35 103.74 15.21L103.74 15.21L103.74 15.21Q103.86 15.10 103.96 14.90L103.96 14.90L103.96 14.90Q104.07 14.69 104.15 14.42L104.15 14.42L104.15 14.42Q104.23 14.16 104.28 13.84L104.28 13.84L104.28 13.84Q104.32 13.52 104.32 13.18L104.32 13.18L104.32 13.18Q104.32 12.61 104.15 12.10L104.15 12.10L104.15 12.10Q103.97 11.59 103.64 11.20L103.64 11.20L103.64 11.20Q103.30 10.82 102.83 10.60L102.83 10.60L102.83 10.60Q102.36 10.37 101.77 10.37L101.77 10.37L101.77 10.37Q101.28 10.37 100.92 10.66L100.92 10.66L100.92 10.66Q100.56 10.96 100.32 11.57L100.32 11.57L100.32 11.57Q100.08 12.17 99.95 13.12L99.95 13.12L99.95 13.12Q99.83 14.07 99.80 15.37L99.80 15.37L99.80 15.37Q100.38 15.57 100.87 15.64L100.87 15.64L100.87 15.64Q101.36 15.72 101.79 15.72ZM116.95 15.49L116.95 15.49L116.95 15.49Q116.66 15.78 116.33 16.01L116.33 16.01L116.33 16.01Q116.00 16.25 115.66 16.42L115.66 16.42L115.66 16.42Q115.33 16.59 115.01 16.69L115.01 16.69L115.01 16.69Q114.70 16.80 114.44 16.81L114.44 16.81L114.44 16.81Q114.30 16.82 114.07 16.81L114.07 16.81L114.07 16.81Q113.85 16.79 113.64 16.69L113.64 16.69L113.64 16.69Q113.43 16.58 113.28 16.37L113.28 16.37L113.28 16.37Q113.13 16.15 113.13 15.74L113.13 15.74L113.13 14.93L113.13 14.93Q112.75 15.30 112.33 15.64L112.33 15.64L112.33 15.64Q111.92 15.98 111.48 16.24L111.48 16.24L111.48 16.24Q111.04 16.50 110.58 16.66L110.58 16.66L110.58 16.66Q110.13 16.81 109.70 16.81L109.70 16.81L109.70 16.81Q109.14 16.81 108.71 16.56L108.71 16.56L108.71 16.56Q108.29 16.31 108.00 15.91L108.00 15.91L108.00 15.91Q107.71 15.52 107.57 15.03L107.57 15.03L107.57 15.03Q107.43 14.53 107.43 14.05L107.43 14.05L107.43 14.05Q107.43 13.69 107.48 13.33L107.48 13.33L107.48 13.33Q107.54 12.98 107.62 12.67L107.62 12.67L107.62 12.67Q107.71 12.35 107.82 12.10L107.82 12.10L107.82 12.10Q107.93 11.85 108.06 11.68L108.06 11.68L108.06 11.68Q108.28 11.38 108.63 11.09L108.63 11.09L108.63 11.09Q108.98 10.80 109.39 10.55L109.39 10.55L109.39 10.55Q109.81 10.29 110.27 10.09L110.27 10.09L110.27 10.09Q110.74 9.88 111.20 9.73L111.20 9.73L111.20 9.73Q111.66 9.58 112.10 9.50L112.10 9.50L112.10 9.50Q112.53 9.42 112.90 9.42L112.90 9.42L112.90 9.42Q113.29 9.42 113.80 9.46L113.80 9.46L113.80 9.46Q114.32 9.50 114.99 9.61L114.99 9.61L114.99 9.61Q114.96 10.40 114.94 11.00L114.94 11.00L114.94 11.00Q114.92 11.60 114.91 12.08L114.91 12.08L114.91 12.08Q114.89 12.55 114.88 12.94L114.88 12.94L114.88 12.94Q114.88 13.33 114.88 13.70L114.88 13.70L114.88 13.70Q114.88 14.08 114.86 14.44L114.86 14.44L114.86 14.44Q114.85 14.80 114.92 15.09L114.92 15.09L114.92 15.09Q114.99 15.37 115.19 15.55L115.19 15.55L115.19 15.55Q115.39 15.73 115.81 15.73L115.81 15.73L115.81 15.73Q116.07 15.73 116.35 15.66L116.35 15.66L116.35 15.66Q116.64 15.60 116.95 15.49ZM113.14 10.60L113.14 10.60L113.14 10.60Q112.73 10.49 112.27 10.44L112.27 10.44L112.27 10.44Q111.80 10.40 111.38 10.40L111.38 10.40L111.38 10.40Q111.15 10.40 110.94 10.41L110.94 10.41L110.94 10.41Q110.73 10.42 110.56 10.45L110.56 10.45L110.56 10.45Q110.39 10.47 110.26 10.50L110.26 10.50L110.26 10.50Q110.13 10.53 110.06 10.57L110.06 10.57L110.06 10.57Q109.94 10.63 109.77 10.87L109.77 10.87L109.77 10.87Q109.61 11.10 109.46 11.45L109.46 11.45L109.46 11.45Q109.31 11.80 109.20 12.24L109.20 12.24L109.20 12.24Q109.09 12.67 109.09 13.14L109.09 13.14L109.09 13.14Q109.09 13.58 109.22 14.03L109.22 14.03L109.22 14.03Q109.35 14.48 109.60 14.83L109.60 14.83L109.60 14.83Q109.85 15.19 110.22 15.41L110.22 15.41L110.22 15.41Q110.58 15.63 111.06 15.63L111.06 15.63L111.06 15.63Q111.50 15.63 111.84 15.49L111.84 15.49L111.84 15.49Q112.18 15.35 112.44 15.10L112.44 15.10L112.44 15.10Q112.69 14.85 112.86 14.51L112.86 14.51L112.86 14.51Q113.03 14.18 113.13 13.79L113.13 13.79L113.13 13.79Q113.13 13.50 113.13 13.18L113.13 13.18L113.13 13.18Q113.13 12.85 113.13 12.46L113.13 12.46L113.13 12.46Q113.13 12.07 113.13 11.61L113.13 11.61L113.13 11.61Q113.13 11.15 113.14 10.60ZM122.44 15.29L122.44 15.29L122.44 15.29Q121.75 15.76 121.29 16.06L121.29 16.06L121.29 16.06Q120.83 16.37 120.48 16.55L120.48 16.55L120.48 16.55Q120.13 16.73 119.86 16.80L119.86 16.80L119.86 16.80Q119.58 16.86 119.27 16.86L119.27 16.86L119.27 16.86Q119.01 16.86 118.76 16.74L118.76 16.74L118.76 16.74Q118.51 16.61 118.31 16.27L118.31 16.27L118.31 16.27Q118.12 15.93 118.00 15.34L118.00 15.34L118.00 15.34Q117.89 14.75 117.89 13.82L117.89 13.82L117.89 13.82Q117.89 12.89 117.91 11.88L117.91 11.88L117.91 11.88Q117.93 10.87 117.95 9.85L117.95 9.85L117.95 9.85Q117.97 8.83 118.00 7.85L118.00 7.85L118.00 7.85Q118.02 6.88 118.02 6.03L118.02 6.03L118.02 6.03Q118.02 5.20 117.76 4.73L117.76 4.73L117.76 4.73Q117.51 4.27 116.99 4.27L116.99 4.27L116.99 4.27Q116.83 4.27 116.64 4.31L116.64 4.31L116.64 4.31Q116.45 4.35 116.24 4.46L116.24 4.46L116.24 4.46Q116.50 4.27 116.80 4.07L116.80 4.07L116.80 4.07Q117.09 3.87 117.40 3.71L117.40 3.71L117.40 3.71Q117.70 3.54 118.01 3.44L118.01 3.44L118.01 3.44Q118.32 3.33 118.63 3.33L118.63 3.33L118.63 3.33Q119.02 3.33 119.24 3.52L119.24 3.52L119.24 3.52Q119.46 3.72 119.57 4.01L119.57 4.01L119.57 4.01Q119.68 4.29 119.70 4.63L119.70 4.63L119.70 4.63Q119.72 4.97 119.72 5.26L119.72 5.26L119.72 5.26Q119.72 5.69 119.71 6.31L119.71 6.31L119.71 6.31Q119.70 6.92 119.68 7.63L119.68 7.63L119.68 7.63Q119.67 8.34 119.66 9.10L119.66 9.10L119.66 9.10Q119.64 9.86 119.63 10.59L119.63 10.59L119.63 10.59Q119.62 11.31 119.60 11.97L119.60 11.97L119.60 11.97Q119.59 12.63 119.58 13.13L119.58 13.13L119.58 13.13Q119.57 13.79 119.68 14.28L119.68 14.28L119.68 14.28Q119.79 14.77 119.99 15.09L119.99 15.09L119.99 15.09Q120.20 15.40 120.48 15.55L120.48 15.55L120.48 15.55Q120.77 15.70 121.12 15.70L121.12 15.70L121.12 15.70Q121.75 15.70 122.44 15.29ZM131.83 15.49L131.83 15.49L131.83 15.49Q131.54 15.78 131.21 16.01L131.21 16.01L131.21 16.01Q130.88 16.25 130.55 16.42L130.55 16.42L130.55 16.42Q130.21 16.59 129.90 16.69L129.90 16.69L129.90 16.69Q129.58 16.80 129.32 16.81L129.32 16.81L129.32 16.81Q129.18 16.82 128.95 16.81L128.95 16.81L128.95 16.81Q128.73 16.79 128.52 16.69L128.52 16.69L128.52 16.69Q128.31 16.58 128.16 16.37L128.16 16.37L128.16 16.37Q128.01 16.15 128.01 15.74L128.01 15.74L128.01 14.93L128.01 14.93Q127.63 15.30 127.22 15.64L127.22 15.64L127.22 15.64Q126.80 15.98 126.36 16.24L126.36 16.24L126.36 16.24Q125.92 16.50 125.47 16.66L125.47 16.66L125.47 16.66Q125.02 16.81 124.58 16.81L124.58 16.81L124.58 16.81Q124.02 16.81 123.59 16.56L123.59 16.56L123.59 16.56Q123.17 16.31 122.88 15.91L122.88 15.91L122.88 15.91Q122.60 15.52 122.45 15.03L122.45 15.03L122.45 15.03Q122.31 14.53 122.31 14.05L122.31 14.05L122.31 14.05Q122.31 13.69 122.36 13.33L122.36 13.33L122.36 13.33Q122.42 12.98 122.50 12.67L122.50 12.67L122.50 12.67Q122.59 12.35 122.70 12.10L122.70 12.10L122.70 12.10Q122.81 11.85 122.94 11.68L122.94 11.68L122.94 11.68Q123.16 11.38 123.51 11.09L123.51 11.09L123.51 11.09Q123.86 10.80 124.27 10.55L124.27 10.55L124.27 10.55Q124.69 10.29 125.15 10.09L125.15 10.09L125.15 10.09Q125.62 9.88 126.08 9.73L126.08 9.73L126.08 9.73Q126.54 9.58 126.98 9.50L126.98 9.50L126.98 9.50Q127.42 9.42 127.78 9.42L127.78 9.42L127.78 9.42Q128.17 9.42 128.69 9.46L128.69 9.46L128.69 9.46Q129.21 9.50 129.87 9.61L129.87 9.61L129.87 9.61Q129.84 10.40 129.82 11.00L129.82 11.00L129.82 11.00Q129.80 11.60 129.79 12.08L129.79 12.08L129.79 12.08Q129.77 12.55 129.77 12.94L129.77 12.94L129.77 12.94Q129.76 13.33 129.76 13.70L129.76 13.70L129.76 13.70Q129.76 14.08 129.75 14.44L129.75 14.44L129.75 14.44Q129.73 14.80 129.80 15.09L129.80 15.09L129.80 15.09Q129.87 15.37 130.07 15.55L130.07 15.55L130.07 15.55Q130.27 15.73 130.70 15.73L130.70 15.73L130.70 15.73Q130.95 15.73 131.24 15.66L131.24 15.66L131.24 15.66Q131.52 15.60 131.83 15.49ZM128.02 10.60L128.02 10.60L128.02 10.60Q127.61 10.49 127.15 10.44L127.15 10.44L127.15 10.44Q126.68 10.40 126.26 10.40L126.26 10.40L126.26 10.40Q126.03 10.40 125.82 10.41L125.82 10.41L125.82 10.41Q125.61 10.42 125.44 10.45L125.44 10.45L125.44 10.45Q125.27 10.47 125.14 10.50L125.14 10.50L125.14 10.50Q125.01 10.53 124.94 10.57L124.94 10.57L124.94 10.57Q124.82 10.63 124.65 10.87L124.65 10.87L124.65 10.87Q124.49 11.10 124.34 11.45L124.34 11.45L124.34 11.45Q124.19 11.80 124.08 12.24L124.08 12.24L124.08 12.24Q123.98 12.67 123.98 13.14L123.98 13.14L123.98 13.14Q123.98 13.58 124.11 14.03L124.11 14.03L124.11 14.03Q124.24 14.48 124.49 14.83L124.49 14.83L124.49 14.83Q124.74 15.19 125.10 15.41L125.10 15.41L125.10 15.41Q125.47 15.63 125.94 15.63L125.94 15.63L125.94 15.63Q126.38 15.63 126.72 15.49L126.72 15.49L126.72 15.49Q127.07 15.35 127.32 15.10L127.32 15.10L127.32 15.10Q127.57 14.85 127.74 14.51L127.74 14.51L127.74 14.51Q127.91 14.18 128.01 13.79L128.01 13.79L128.01 13.79Q128.01 13.50 128.01 13.18L128.01 13.18L128.01 13.18Q128.01 12.85 128.01 12.46L128.01 12.46L128.01 12.46Q128.01 12.07 128.01 11.61L128.01 11.61L128.01 11.61Q128.02 11.15 128.02 10.60Z" transform="matrix(3.07203930050277,0,0,3.07203930050277,-0.4300892605832871,-10.229891589970542)"/></g></svg>